<svg xmlns="http://www.w3.org/2000/svg" viewBox="0 0 250.47 250.47"><defs><style>.cls-1{fill:#00b3c8;}.cls-2{fill:#009aab;}.cls-3{fill:#fdfefe;}</style></defs><title>Asset 3</title><g id="Layer_2" data-name="Layer 2"><g id="Layer_1-2" data-name="Layer 1"><path class="cls-1" d="M126.06,250.52H113.93c-.37-.67-1-.38-1.57-.44-17-1.8-33.07-6.41-47.85-15.07C42,221.81,24.32,203.78,12.77,180.28-.47,153.33-2.52,124.92,3.89,95.89,10,68.23,25.38,46.16,46.94,28.29c22.92-19,49.45-28,79.2-27.55q0,15.08,0,30.15c-.26,0-.51.07-.77.08-9.37.26-16.2,4.82-20.28,13s-3.72,16.72,1.46,24.5c4.58,6.9,11.25,10.42,19.59,10.65v23.77c-.32,0-.64.08-1,.09A23.22,23.22,0,0,0,102.54,126c-.05,23.71,0,47.42,0,71.12a20.52,20.52,0,0,0,2,9.28c4.42,8.92,11.51,13.86,21.61,14.12Z" transform="translate(-0.04 -0.09)"/><path class="cls-2" d="M126.09,30.89q0-15.07,0-30.15a116.63,116.63,0,0,1,71.92,22.94c28.37,21.27,46.62,48.78,51.4,84.46.31,2.34.2,4.75,1,7v21.51c-.67.29-.38.91-.43,1.37a137.06,137.06,0,0,1-3.34,19.4c-5.89,23.49-18.45,43-35.91,59.48-19,17.91-41.35,29-67.35,32.54-2.41.33-4.89.18-7.22,1.06H126.06l0-30a3.83,3.83,0,0,1,.58-.07c11.08.63,23.55-9.88,23.39-24-.26-23.39-.07-46.79-.07-70.18,0-7.72-3.32-13.79-9.19-18.58a22.52,22.52,0,0,0-14.71-4.86q0-11.88,0-23.77a4.11,4.11,0,0,1,.77-.12c10.21.23,19.59-7.66,22.08-16.45,2.92-10.28.37-20.19-8.45-27A22.64,22.64,0,0,0,126.09,30.89Z" transform="translate(-0.04 -0.09)"/><path class="cls-3" d="M250.48,115.16c-.82-2.27-.71-4.68-1-7-4.78-35.68-23-63.19-51.4-84.46A116.63,116.63,0,0,0,126.14.74C96.39.29,69.86,9.28,46.94,28.29,25.38,46.16,10,68.23,3.89,95.89c-6.41,29-4.36,57.44,8.88,84.39C24.32,203.78,42,221.81,64.51,235c14.78,8.66,30.88,13.27,47.85,15.07.53.06,1.2-.23,1.57.44q-56.12,0-112.25,0C.41,250.56,0,250.39,0,249Q.12,125.3.05,1.6C.05.38.33.1,1.55.1q123.69.06,247.39,0c1.4,0,1.57.37,1.57,1.64Q250.45,58.45,250.48,115.16Z" transform="translate(-0.04 -0.09)"/><path class="cls-3" d="M136.23,250.52c2.33-.88,4.81-.73,7.22-1.06,26-3.51,48.35-14.63,67.35-32.54,17.46-16.47,30-36,35.91-59.48a137.06,137.06,0,0,0,3.34-19.4c0-.46-.24-1.08.43-1.37q0,56.1,0,112.19c0,1.41-.29,1.7-1.7,1.7Q192.53,250.49,136.23,250.52Z" transform="translate(-0.04 -0.09)"/><path class="cls-3" d="M126.09,102.87a22.52,22.52,0,0,1,14.71,4.86c5.87,4.79,9.2,10.86,9.19,18.58,0,23.39-.19,46.79.07,70.18.16,14.11-12.31,24.62-23.39,24a3.83,3.83,0,0,0-.58.07c-10.1-.26-17.19-5.2-21.61-14.12a20.52,20.52,0,0,1-2-9.28c0-23.7,0-47.41,0-71.12A23.22,23.22,0,0,1,125.12,103C125.45,103,125.77,102.9,126.09,102.87Z" transform="translate(-0.04 -0.09)"/><path class="cls-3" d="M126.09,30.89a22.64,22.64,0,0,1,14.39,4.6c8.82,6.85,11.37,16.76,8.45,27-2.49,8.79-11.87,16.68-22.08,16.45a4.11,4.11,0,0,0-.77.12c-8.33-.23-15-3.75-19.58-10.65-5.18-7.78-5.59-16.24-1.46-24.5S116,31.23,125.32,31C125.58,31,125.83,30.92,126.09,30.89Z" transform="translate(-0.04 -0.09)"/></g></g></svg>