<svg xmlns="http://www.w3.org/2000/svg" viewBox="0 0 250.65 250.65"><defs><style>.cls-1{fill:#ce2727;}.cls-2{fill:#ed4224;}.cls-3{fill:#fefdfd;}</style></defs><title>Asset 5</title><g id="Layer_2" data-name="Layer 2"><g id="Layer_1-2" data-name="Layer 1"><path class="cls-1" d="M250.67,129.46v5.43c-.58.16-.52.64-.54,1.08a96.59,96.59,0,0,1-2.31,16.33c-10.9,51.65-54.67,91.21-107.51,97.4-2.33.27-4.82-.27-7,1h-7.61l0-25.51c4.56-.88,7.94-3.52,10.75-7.09a76.43,76.43,0,0,0,5.36-8.12c1.1-1.83,1.1-3.5-.93-4.59s-3.23-.12-4.16,1.65a44.34,44.34,0,0,1-5,7.73c-1.61,1.92-3.2,4-6,4.2l-.06-16,4.87-.17c10-.42,19.8-1.51,29.13-5.37,1.76-.73,3.11-1.62,2.36-3.8-.62-1.8-2.56-2.42-4.75-1.51-10.15,4.21-20.79,5.08-31.61,4.76V191.5l1.89-.09c11-.25,21.82-1.2,32.11-5.44,1.75-.72,3.12-1.61,2.37-3.81-.62-1.79-2.56-2.4-4.76-1.49-10.15,4.2-20.79,5.09-31.61,4.73v-5.31c.9,0,1.8-.07,2.71-.09,10.6-.3,21.09-1.24,31-5.34,1.78-.73,3.45-1.47,2.61-3.88-.62-1.81-2.54-2.43-4.75-1.51-10.15,4.2-20.78,5.11-31.61,4.72v-4.77c.81,0,1.62-.07,2.44-.09a126.14,126.14,0,0,0,26.33-3.2c6.64-1.57,8.1-3.55,8.18-10.39,0-.81,0-1.63,0-2.44-.24-6,1.74-11.07,5.35-15.81,2.75-3.61,6-6.73,8.72-10.35a63.51,63.51,0,0,0-20.43-93.55c-9.54-5.26-19.8-7.71-30.59-8.31V.93a96.61,96.61,0,0,1,23.94,2.13c30.79,6.25,55.95,21.77,75.2,46.6a121.72,121.72,0,0,1,24.33,56.79c.54,3.5.38,7.1,1.52,10.51V118A26.34,26.34,0,0,0,250.67,129.46Z" transform="translate(-0.07 -0.05)"/><path class="cls-2" d="M125.68,202.91l.06,16c-3,.1-4.67-2-6.37-4-2.25-2.61-3.82-5.69-5.58-8.63a2.54,2.54,0,0,0-3.74-.95c-1.42.76-2.21,2.09-1.32,3.63,4.07,7,7.78,14.49,17,16.17l0,25.51h-8.15c-.5-1-1.44-.52-2.17-.59a122.61,122.61,0,0,1-46.84-13.49C18.63,210.27-7,157,3.34,101.53,14.17,43.61,66.63.48,125.68.93V25.08c-3.85.44-7.76.65-11.56,1.37C83.73,32.24,60.7,58.89,62,91.1c.62,15.65,5.93,29.46,16.6,40.78,6.8,7.21,10.93,14.79,9.78,25-.53,4.7,1.25,6.77,5.68,8.34a28.45,28.45,0,0,0,2.88.78,135.78,135.78,0,0,0,28.77,3.26V174a83.87,83.87,0,0,1-32.51-5c-1.75-.64-3.23-.75-4,1.27s.06,3.38,1.9,4.15c1.58.66,3.23,1.18,4.87,1.68,9.69,3,19.68,3.8,29.75,4v5.31a84.39,84.39,0,0,1-31.74-4.7c-1.8-.64-3.69-1.6-4.79,1-.85,2,.12,3.46,2.93,4.53.34.13.68.23,1,.36,10.54,3.79,21.51,4.68,32.58,4.91v5.32a85.31,85.31,0,0,1-32.67-5c-1.63-.59-3.06-.69-3.81,1.19a3,3,0,0,0,1.72,4.21,38.52,38.52,0,0,0,3.82,1.37C104.78,201.88,115.2,202.64,125.68,202.91Z" transform="translate(-0.07 -0.05)"/><path class="cls-3" d="M125.68.93C66.63.48,14.17,43.61,3.34,101.53-7,157,18.63,210.27,68.51,236.57a122.61,122.61,0,0,0,46.84,13.49c.73.07,1.67-.39,2.17.59q-57.58,0-115.17,0c-1.77,0-2.28-.23-2.28-2.18Q.18,125.34.09,2.14C.09.45.47.06,2.17.07q123.18.06,246.37,0c2,0,2.18.51,2.18,2.27q-.09,57.32-.05,114.64c-1.14-3.41-1-7-1.52-10.51a121.72,121.72,0,0,0-24.33-56.79c-19.25-24.83-44.41-40.35-75.2-46.6A96.61,96.61,0,0,0,125.68.93Z" transform="translate(-0.07 -0.05)"/><path class="cls-3" d="M133.28,250.65c2.21-1.22,4.7-.68,7-1,52.84-6.19,96.61-45.75,107.51-97.4A96.59,96.59,0,0,0,250.13,136c0-.44,0-.92.54-1.08q0,56.73.06,113.45c0,2-.41,2.37-2.36,2.36Q190.82,250.6,133.28,250.65Z" transform="translate(-0.07 -0.05)"/><path class="cls-2" d="M250.67,129.46a26.34,26.34,0,0,1,0-11.42Z" transform="translate(-0.07 -0.05)"/><path class="cls-3" d="M125.68,169.22A135.78,135.78,0,0,1,96.91,166a28.45,28.45,0,0,1-2.88-.78c-4.43-1.57-6.21-3.64-5.68-8.34,1.15-10.17-3-17.75-9.78-25C67.9,120.56,62.59,106.75,62,91.1,60.7,58.89,83.73,32.24,114.12,26.45c3.8-.72,7.71-.93,11.56-1.37,10.79.6,21,3.05,30.59,8.31a63.51,63.51,0,0,1,20.43,93.55c-2.68,3.62-6,6.74-8.72,10.35-3.61,4.74-5.59,9.85-5.35,15.81,0,.81,0,1.63,0,2.44-.08,6.84-1.54,8.82-8.18,10.39a126.14,126.14,0,0,1-26.33,3.2C127.3,169.15,126.49,169.19,125.68,169.22Zm5.64-58.09c.63.46,1,.79,1.48,1.07,4.66,3,4.68,3,6.41-2.19,2.24-6.66,6.53-11.21,13.46-12.88,7.35-1.78,12.28,2.13,12.22,9.51-.07,9-9,16.93-18.87,16.9-1.59,0-3.49-1.48-4.57-.18s-1,3.2-1.46,4.86A177.23,177.23,0,0,0,134.47,160c-.14,2.16,0,3.25,2.82,2.86a114.52,114.52,0,0,0,17.28-3.31c2.09-.61,2.72-1.38,2.52-3.22-1.11-10.19,2.13-18.56,9.23-26.12,9.43-10,15.61-22,16.87-36,3.29-36.3-28-66.74-64.21-62.67C90.26,34.8,67.5,60.11,67.65,89c.09,16.35,6.19,30.31,17.84,41.78a27.85,27.85,0,0,1,8.43,16.62,52.23,52.23,0,0,1,.19,8.67c-.08,2,.73,2.82,2.57,3.37a93.66,93.66,0,0,0,18.09,3.46c3.41.33,3.47.4,3.28-3-.65-11.62-3.24-22.89-6.12-34.13-.62-2.39-1.46-3.14-3.77-2.16a6.5,6.5,0,0,1-3.48.23c-7.58-1.1-15.33-8.11-17.21-15.57-1.36-5.43,1.59-10.35,7-11.51s9.44,1.47,13.31,4.64c3.63,2.95,5.32,7,6.35,11.39.39,1.63,1,1.91,2.39,1s3-1.41,4.37-2.62c-1-1-1.84-1.8-2.65-2.66-7.16-7.64-8.66-17.28-4-26,2.41-4.49,5.85-7.73,11.26-7.69a14.51,14.51,0,0,1,13.18,7.68c2.71,4.76,2.65,9.86,1.32,15A26.17,26.17,0,0,1,131.32,111.13Zm-4.93,52.08c2,.5,2.24-.58,2.34-2.35q.33-6.09,1.07-12.15a183,183,0,0,1,5.67-26.48c.25-.9.83-1.75-.58-2.42-2.92-1.39-5.66-3.84-8.66-4.19-2.09-.24-4.49,2.3-6.76,3.6a.89.89,0,0,1-.23.13c-2.28.67-2.61,2-1.95,4.23,3.58,12.36,6.15,24.92,6.61,37.82C124,163.39,125,163.33,126.39,163.21Zm-9.51-71c.5,6,4.07,10.59,8.52,14.74a1.2,1.2,0,0,0,1.87-.07c3.18-2.87,6.11-5.93,7.38-10.16a12.78,12.78,0,0,0-3.43-13.64c-2.48-2.42-5.81-2.94-8.44-1.32A11.68,11.68,0,0,0,116.88,92.23Zm-11.42,25.88c3.68,0,4.42-1,3.19-4.5a22.4,22.4,0,0,0-3.76-7.13,11.1,11.1,0,0,0-7.42-4,3,3,0,0,0-3.77,3.15C93.4,111.21,100,118.17,105.46,118.11Zm41.06-.06c5.91-.07,12.24-6.29,12.39-11.6.07-2.54-1.23-3.91-3.74-3.84a8.42,8.42,0,0,0-3.62,1c-5,2.57-7.16,7.12-8.48,12.25-.26,1.05.14,1.51,1.13,1.7S146.12,118,146.52,118.05Z" transform="translate(-0.07 -0.05)"/><path class="cls-3" d="M125.68,180.09c-10.07-.16-20.06-1-29.75-4-1.64-.5-3.29-1-4.87-1.68-1.84-.77-2.66-2.18-1.9-4.15s2.26-1.91,4-1.27a83.87,83.87,0,0,0,32.51,5c10.83.39,21.46-.52,31.61-4.72,2.21-.92,4.13-.3,4.75,1.51.84,2.41-.83,3.15-2.61,3.88-10,4.1-20.44,5-31,5.34C127.48,180,126.58,180.06,125.68,180.09Z" transform="translate(-0.07 -0.05)"/><path class="cls-3" d="M125.68,202.91c-10.48-.27-20.9-1-30.94-4.37a38.52,38.52,0,0,1-3.82-1.37A3,3,0,0,1,89.2,193c.75-1.88,2.18-1.78,3.81-1.19a85.31,85.31,0,0,0,32.67,5c10.82.32,21.46-.55,31.61-4.76,2.19-.91,4.13-.29,4.75,1.51.75,2.18-.6,3.07-2.36,3.8-9.33,3.86-19.17,4.95-29.13,5.37Z" transform="translate(-0.07 -0.05)"/><path class="cls-3" d="M125.68,191.5c-11.07-.23-22-1.12-32.58-4.91-.34-.13-.68-.23-1-.36-2.81-1.07-3.78-2.54-2.93-4.53,1.1-2.6,3-1.64,4.79-1a84.39,84.39,0,0,0,31.74,4.7c10.82.36,21.46-.53,31.61-4.73,2.2-.91,4.14-.3,4.76,1.49.75,2.2-.62,3.09-2.37,3.81-10.29,4.24-21.14,5.19-32.11,5.44Z" transform="translate(-0.07 -0.05)"/><path class="cls-3" d="M125.69,225.14c-9.18-1.68-12.89-9.14-17-16.17-.89-1.54-.1-2.87,1.32-3.63a2.54,2.54,0,0,1,3.74.95c1.76,2.94,3.33,6,5.58,8.63,1.7,2,3.35,4.1,6.37,4,2.82-.24,4.41-2.28,6-4.2a44.34,44.34,0,0,0,5-7.73c.93-1.77,2.23-2.7,4.16-1.65s2,2.76.93,4.59a76.43,76.43,0,0,1-5.36,8.12C133.63,221.62,130.25,224.26,125.69,225.14Z" transform="translate(-0.07 -0.05)"/><path class="cls-2" d="M131.32,111.13a26.17,26.17,0,0,0,8.73-13.56c1.33-5.15,1.39-10.25-1.32-15a14.51,14.51,0,0,0-13.18-7.68c-5.41,0-8.85,3.2-11.26,7.69-4.66,8.71-3.16,18.35,4,26,.81.86,1.66,1.67,2.65,2.66-1.34,1.21-3,1.75-4.37,2.62s-2,.58-2.39-1c-1-4.38-2.72-8.44-6.35-11.39-3.87-3.17-8-5.78-13.31-4.64s-8.41,6.08-7,11.51c1.88,7.46,9.63,14.47,17.21,15.57a6.5,6.5,0,0,0,3.48-.23c2.31-1,3.15-.23,3.77,2.16,2.88,11.24,5.47,22.51,6.12,34.13.19,3.38.13,3.31-3.28,3a93.66,93.66,0,0,1-18.09-3.46c-1.84-.55-2.65-1.37-2.57-3.37a52.23,52.23,0,0,0-.19-8.67,27.85,27.85,0,0,0-8.43-16.62C73.84,119.29,67.74,105.33,67.65,89,67.5,60.11,90.26,34.8,119,31.56c36.22-4.07,67.5,26.37,64.21,62.67-1.26,14-7.44,25.94-16.87,36-7.1,7.56-10.34,15.93-9.23,26.12.2,1.84-.43,2.61-2.52,3.22a114.52,114.52,0,0,1-17.28,3.31c-2.83.39-3-.7-2.82-2.86A177.23,177.23,0,0,1,140,128.22c.43-1.66.46-3.67,1.46-4.86s3,.17,4.57.18c9.89,0,18.8-7.86,18.87-16.9.06-7.38-4.87-11.29-12.22-9.51-6.93,1.67-11.22,6.22-13.46,12.88-1.73,5.17-1.75,5.17-6.41,2.19C132.36,111.92,132,111.59,131.32,111.13Z" transform="translate(-0.07 -0.05)"/><path class="cls-2" d="M126.39,163.21c-1.44.12-2.42.18-2.49-1.81-.46-12.9-3-25.46-6.61-37.82-.66-2.28-.33-3.56,1.95-4.23a.89.89,0,0,0,.23-.13c2.27-1.3,4.67-3.84,6.76-3.6,3,.35,5.74,2.8,8.66,4.19,1.41.67.83,1.52.58,2.42a183,183,0,0,0-5.67,26.48q-.75,6.06-1.07,12.15C128.63,162.63,128.34,163.71,126.39,163.21Z" transform="translate(-0.07 -0.05)"/><path class="cls-2" d="M116.88,92.23a11.68,11.68,0,0,1,5.9-10.45c2.63-1.62,6-1.1,8.44,1.32a12.78,12.78,0,0,1,3.43,13.64c-1.27,4.23-4.2,7.29-7.38,10.16a1.2,1.2,0,0,1-1.87.07C121,102.82,117.38,98.18,116.88,92.23Z" transform="translate(-0.07 -0.05)"/><path class="cls-2" d="M105.46,118.11c-5.5.06-12.06-6.9-11.76-12.47a3,3,0,0,1,3.77-3.15,11.1,11.1,0,0,1,7.42,4,22.4,22.4,0,0,1,3.76,7.13C109.88,117.06,109.14,118.07,105.46,118.11Z" transform="translate(-0.07 -0.05)"/><path class="cls-2" d="M146.52,118.05c-.4-.09-1.36-.32-2.32-.5s-1.39-.65-1.13-1.7c1.32-5.13,3.45-9.68,8.48-12.25a8.42,8.42,0,0,1,3.62-1c2.51-.07,3.81,1.3,3.74,3.84C158.76,111.76,152.43,118,146.52,118.05Z" transform="translate(-0.07 -0.05)"/></g></g></svg>