<svg xmlns="http://www.w3.org/2000/svg" viewBox="0 0 250.66 250.64"><defs><style>.cls-1{fill:#fefdfd;}.cls-2{fill:#e21f27;}.cls-3{fill:#c22329;}</style></defs><title>Asset 4</title><g id="Layer_2" data-name="Layer 2"><g id="Layer_1-2" data-name="Layer 1"><path class="cls-1" d="M117.37,250.8q-57.32,0-114.64,0c-1.79,0-2.27-.26-2.26-2.19Q.56,125.6.46,2.53C.46.48,1,.21,2.87.21Q125.79.3,248.72.21c1.87,0,2.41.27,2.4,2.32q-.1,123.07,0,246.13c0,1.93-.47,2.19-2.26,2.19q-57.87-.09-115.73,0c.19-.55.68-.51,1.11-.52a104.07,104.07,0,0,0,19-2.7c64.87-14.11,107.56-78.79,95.18-144.31-6.42-33.94-24-60.71-52.24-80.48A121,121,0,0,0,142.5,2.05c-5.6-.77-11.27-1.55-17-.92a99.83,99.83,0,0,0-20,1.5q-45,7.71-74.95,42.29C-1.69,82.07-8.66,138.67,14.27,182.12q30,56.77,93.66,67.22C111.08,249.86,114.34,249.58,117.37,250.8Z" transform="translate(-0.46 -0.21)"/><path class="cls-2" d="M117.37,250.8c-3-1.22-6.29-.94-9.44-1.46Q44.36,239,14.27,182.12c-22.93-43.45-16-100.05,16.31-137.2q30-34.48,75-42.29a99.83,99.83,0,0,1,20-1.5V33.5c-10.86.24-21.72.41-32.57-.12A10.8,10.8,0,0,0,84,36.84C68.48,52.66,53,68.53,36.89,83.81a9.82,9.82,0,0,0-3.36,7.61c-.07,22.27.39,44.54-.21,66.81-.07,2.57-.11,5.26,2,7.37,16.32,16.32,31.95,33.33,48.87,49.06a12.19,12.19,0,0,0,9,3.53c4.79-.14,9.58-.41,14.37-.43,17,0,34.05-.12,51.08.05a12,12,0,0,0,9.33-3.92q22.5-22.83,45.15-45.51c.63-.63,1.34-1.18,2-1.77.28,1.55-.61,2.51-1.61,3.5Q189,194.65,164.48,219.23a5.41,5.41,0,0,1-4.3,1.71c-10.4-.06-20.8,0-31.2,0-3.46,0-3.46,0-3.46,3.58V250.8Z" transform="translate(-0.46 -0.21)"/><path class="cls-3" d="M125.52,33.5V1.13c5.71-.63,11.38.15,17,.92a121,121,0,0,1,53.67,20.74c28.22,19.77,45.82,46.54,52.24,80.48,12.38,65.52-30.31,130.2-95.18,144.31a104.07,104.07,0,0,1-19,2.7c-.43,0-.92,0-1.11.52h-7.61V224.49c0-3.57,0-3.58,3.46-3.58,10.4,0,20.8,0,31.2,0a5.41,5.41,0,0,0,4.3-1.71q24.5-24.6,49.09-49.12c1-1,1.89-2,1.61-3.5a9.16,9.16,0,0,0,2.76-7.62c-.2-3.52-.27-7.05-.26-10.57q0-28.38.18-56.75A9.42,9.42,0,0,0,215,84.41q-24.22-24-48.3-48.08A8.49,8.49,0,0,0,160,33.6C148.5,33.69,137,33.56,125.52,33.5Z" transform="translate(-0.46 -0.21)"/><path class="cls-1" d="M125.52,33.5c11.49.06,23,.19,34.47.1a8.49,8.49,0,0,1,6.66,2.73q24,24.14,48.3,48.08a9.42,9.42,0,0,1,2.91,7.26q-.18,28.38-.18,56.75c0,3.52.06,7.05.26,10.57a9.16,9.16,0,0,1-2.76,7.62c-.67.59-1.38,1.14-2,1.77Q190.58,191.12,168,213.89a12,12,0,0,1-9.33,3.92c-17-.17-34-.1-51.08-.05-4.79,0-9.58.29-14.37.43a12.19,12.19,0,0,1-9-3.53c-16.92-15.73-32.55-32.74-48.87-49.06-2.11-2.11-2.07-4.8-2-7.37.6-22.27.14-44.54.21-66.81a9.82,9.82,0,0,1,3.36-7.61C53,68.53,68.48,52.66,84,36.84A10.8,10.8,0,0,1,93,33.38C103.8,33.91,114.66,33.74,125.52,33.5ZM211.72,91c.12-.68-.27-1-.81-1.32l-1.89-2c-.63-.77-1.19-1.6-1.89-2.3q-22.4-22.5-44.8-45a3.09,3.09,0,0,0-2.36-1q-17.22.09-34.45.11c-11.58-.13-23.17-.29-34.74.33a3.66,3.66,0,0,0-2.5,1.4C73.09,56.48,57.54,71.4,42.71,87.05a11.64,11.64,0,0,0-3.35,9c.21,20.55-.13,41.1.18,61.66a8.66,8.66,0,0,0,2.81,6.77q22.26,21.91,44.31,44a9.51,9.51,0,0,0,7.63,3.31c20.73-.18,41.47-.07,62.2.11a9.87,9.87,0,0,0,7.69-3.15c14.89-14.3,29.21-29.18,43.92-43.67.83-.82,1.61-1.7,2.41-2.57a3.61,3.61,0,0,0,.94-2.41c.79-12.48.47-25,.46-37.46C211.9,112.14,212.19,101.55,211.72,91Z" transform="translate(-0.46 -0.21)"/><path class="cls-2" d="M209,87.68l1.89,2c0,.63.08,1.17.81,1.32.47,10.59.18,21.18.19,31.77,0,12.49.33,25-.46,37.46a3.61,3.61,0,0,1-.94,2.41c-.8.87-1.58,1.75-2.41,2.57-14.71,14.49-29,29.37-43.92,43.67a9.87,9.87,0,0,1-7.69,3.15c-20.73-.18-41.47-.29-62.2-.11a9.51,9.51,0,0,1-7.63-3.31q-22-22.17-44.31-44a8.66,8.66,0,0,1-2.81-6.77c-.31-20.56,0-41.11-.18-61.66a11.64,11.64,0,0,1,3.35-9C57.54,71.4,73.09,56.48,88.28,41.21a3.66,3.66,0,0,1,2.5-1.4c11.57-.62,23.16-.46,34.74-.33-.37,2.38.42,3.27,3,3.23,10.48-.16,21,0,31.44-.11a6,6,0,0,1,4.74,2q20.53,20.69,41.19,41.23C206.79,86.67,207.46,87.93,209,87.68ZM46.09,125.89c0,10.23,0,20.47,0,30.7a4.58,4.58,0,0,0,1.38,3.6Q69.4,182,91.24,204a4.63,4.63,0,0,0,3.59,1.45q30.83-.06,61.67,0a4.62,4.62,0,0,0,3.59-1.43q21.75-21.84,43.6-43.6a4.62,4.62,0,0,0,1.46-3.58q-.06-31,0-61.94a4.86,4.86,0,0,0-1.58-3.8q-21.75-21.66-43.42-43.41a4.59,4.59,0,0,0-3.56-1.5q-30.83.07-61.67,0a4.89,4.89,0,0,0-3.8,1.58Q69.37,69.61,47.51,91.36a4.52,4.52,0,0,0-1.45,3.56C46.11,105.24,46.09,115.57,46.09,125.89Z" transform="translate(-0.46 -0.21)"/><path class="cls-3" d="M209,87.68c-1.56.25-2.23-1-3.09-1.87q-20.62-20.58-41.19-41.23a6,6,0,0,0-4.74-2c-10.48.09-21-.05-31.44.11-2.62,0-3.41-.85-3-3.23q17.22,0,34.45-.11a3.09,3.09,0,0,1,2.36,1q22.39,22.49,44.8,45C207.83,86.08,208.39,86.91,209,87.68Z" transform="translate(-0.46 -0.21)"/><path class="cls-3" d="M211.72,91c-.73-.15-.84-.69-.81-1.32C211.45,89.92,211.84,90.28,211.72,91Z" transform="translate(-0.46 -0.21)"/><path class="cls-1" d="M46.09,125.89c0-10.32,0-20.65,0-31a4.52,4.52,0,0,1,1.45-3.56Q69.36,69.6,91.12,47.75a4.89,4.89,0,0,1,3.8-1.58q30.84.07,61.67,0a4.59,4.59,0,0,1,3.56,1.5q21.67,21.75,43.42,43.41a4.86,4.86,0,0,1,1.58,3.8q-.06,31,0,61.94a4.62,4.62,0,0,1-1.46,3.58q-21.85,21.75-43.6,43.6a4.62,4.62,0,0,1-3.59,1.43q-30.84-.06-61.67,0A4.63,4.63,0,0,1,91.24,204Q69.39,182,47.44,160.19a4.58,4.58,0,0,1-1.38-3.6C46.1,146.36,46.09,136.12,46.09,125.89ZM111,74.52c.38,3.11.7,6.35,1.21,9.56,2.42,15.25,4.9,30.5,7.35,45.75,1,6.43,2,12.87,2.41,19.36.18,2.58,1.91,2.15,3.5,2.15,1.34,0,2.6.24,2.81-1.9,1.84-19.18,6.19-38,9.45-56.91,1.28-7.47,3-14.9,3-22.54,0-4.34-1.37-8.23-5.12-10.84-9.45-6.55-21.84-1.62-24,9.56A57.82,57.82,0,0,0,111,74.52Zm13.56,120.39c9.08,0,14.56-4.92,14.59-13.1s-5.81-14.05-14-14.07c-8.5,0-14.83,6-14.77,14C110.5,189.51,116.3,194.91,124.58,194.91Z" transform="translate(-0.46 -0.21)"/><path class="cls-2" d="M111,74.52a57.82,57.82,0,0,1,.56-5.81c2.17-11.18,14.56-16.11,24-9.56,3.75,2.61,5.08,6.5,5.12,10.84.06,7.64-1.68,15.07-3,22.54-3.26,19-7.61,37.73-9.45,56.91-.21,2.14-1.47,1.9-2.81,1.9-1.59,0-3.32.43-3.5-2.15-.45-6.49-1.38-12.93-2.41-19.36-2.45-15.25-4.93-30.5-7.35-45.75C111.72,80.87,111.4,77.63,111,74.52Z" transform="translate(-0.46 -0.21)"/><path class="cls-2" d="M124.58,194.91c-8.28,0-14.08-5.4-14.14-13.16-.06-8,6.27-14,14.77-14,8.15,0,14,5.92,14,14.07S133.66,194.91,124.58,194.91Z" transform="translate(-0.46 -0.21)"/></g></g></svg>