<?xml version="1.0" encoding="utf-8"?>
<!-- Generator: Adobe Illustrator 22.1.0, SVG Export Plug-In . SVG Version: 6.00 Build 0)  -->
<svg version="1.1" id="Layer_1" xmlns="http://www.w3.org/2000/svg" xmlns:xlink="http://www.w3.org/1999/xlink" x="0px" y="0px"
	 viewBox="0 0 536 479" style="enable-background:new 0 0 536 479;" xml:space="preserve">
<style type="text/css">
	.st0{fill:white;}
</style>
<path class="st0" d="M268.1,14c-62.6,0-113.6,51-113.6,113.5s51,113.6,113.6,113.6c62.6,0,113.5-51,113.5-113.6S330.6,14,268.1,14
	L268.1,14z M268.1,34.6c51.4,0,92.9,41.5,92.9,92.9c0,51.4-41.5,92.9-92.9,92.9c-51.4,0-92.9-41.5-92.9-92.9
	C175.2,76.1,216.7,34.6,268.1,34.6L268.1,34.6z M257.7,55.3v18.3c-27.3,4.6-28.2,28.9-28.2,31.7c0,25.6,20.7,30.2,37.3,33.9
	c14.9,3.3,23.4,5.7,23.4,15.8c0,6-2.9,16.1-22.2,16.1c-0.4,0-10.4-0.1-16.7-6.4c-3.7-3.7-5.5-9-5.3-15.9v-0.6h-19.2l0,0.6
	c0.6,21.7,10.7,34.1,30.8,37.9v13.1h20.6V187c29.4-4.8,31-27.5,31-32.3c0-24.7-20.7-29.4-37.3-33.2c-14.9-3.4-23.3-5.8-23.3-15.3
	c0-11.3,6.2-16.6,19.7-16.6c14.6,0,18.4,9,19,17.2h19.2c0-8-3.3-16.6-9-22.9c-5-5.5-11.6-9-19.2-10.4V55.3H257.7z M149,241.1
	c-29.3,0-42.6,7.1-57.2,12.9c0,0,0,0,0,0c-27.9,11-75.9,34.1-75.9,34.1c-5.2,2.5-7.3,8.6-4.8,13.8c2.5,5.2,8.6,7.3,13.8,4.8
	c0,0,48.2-23.1,74.6-33.6c16.1-6.4,23.3-11.4,49.6-11.4c58,0,56.4,26,80.2,40.3c0,0,0,0,0,0c8.5,5.1,21.7,9.3,36.8,13.1
	c1.5,0.9,3.3,1.3,5.1,1.3c17,4.1,34.9,7.2,48.6,7.2c12.1,0,20.6,2.3,25.1,5.2c4.5,2.9,5.8,5.2,5.8,10.3c0,6-1.4,8.1-5.9,10.7
	c-4.6,2.7-13.2,4.8-25.1,4.8h-59.9c-25.3,0-61.2-9.9-61.2-9.9c-3.5-1.1-7.5-0.2-10.2,2.3c-2.7,2.6-3.8,6.5-2.9,10.1
	c0.9,3.7,3.8,6.5,7.5,7.4c0,0,36.5,10.7,66.8,10.7h59.9c14,0,25.9-1.9,35.6-7.6c2.9-1.7,5.4-4,7.7-6.5c0.8-0.3,1.5-0.7,2.2-1.1
	l92.8-62.5c16.1-9.6,27.2-12.3,33.8-12.1c6.6,0.1,9.1,2.2,11.3,5c3,4,3.3,6.1,1.3,10.8c-2,4.8-7.7,11.5-17.7,18.6
	c-12.4,8.8-148.8,99.4-164.8,108.6c-11.9,6.9-21.4,14.2-32.4,17.3c-10.9,3.1-23.8,3.1-45-7.3c-14.1-6.9-73.8-38-93.1-48
	c-10.7-5.6-19.7-8.6-28.9-8.1c-9.2,0.5-17,4.5-25.2,9.8c0,0-0.1,0-0.1,0.1l-27.9,18.1c-3.1,2-5,5.5-4.8,9.2c0.2,3.7,2.3,7,5.6,8.7
	c3.3,1.7,7.3,1.4,10.4-0.6l27.9-18.2c7.1-4.5,11.3-6.3,15.2-6.5c3.9-0.2,9.1,1,18.3,5.8c19.2,9.9,78,40.7,93.5,48.2
	c24.4,11.9,44,13,59.7,8.5c15.7-4.5,26.9-13.4,37.1-19.3c21.5-12.5,150.8-98.7,166.4-109.7v0c11.9-8.4,20.4-17.2,24.8-27.4
	c4.3-10.2,2.9-22.5-4-31.4c-5.4-7-15-12.8-27.3-13.1c-8.6-0.2-18.9,3.1-30.3,8.2c-0.4-2.1,0.6-4.4-0.3-6.4
	c-3.5-7.6-11.3-12.9-20.2-14.7c0,0,0,0,0,0c-11.5-2.3-24.6,1.3-37.5,7.2c-0.9-2.8-1.7-5.7-3.5-7.9c-5.5-6.6-13.5-8.9-20.9-9.5
	c-14.8-1.1-30.2,3.7-41.4,10.3c-15.4,9.2-61.7,38.4-68.4,42.7c-13.8-3.7-26.2-8.2-29.9-10.4C230.3,278.6,214.1,241.1,149,241.1
	L149,241.1z M377.9,262.3c4.1,0.3,6.1,1.5,6.7,2.2c0.4,0.5,1.1,1.5,0.8,4.5l-51,35.2c-4.6-0.7-9.4-1.1-14.7-1.1
	c-5.4,0-12.9-0.8-21.1-2.1c17.9-11.3,40.2-25.4,50-31.2C355.6,265.6,369.6,261.6,377.9,262.3L377.9,262.3z M430.5,272
	c2.7-0.3,5.1-0.2,6.9,0.2c4.3,0.8,4.7,1.6,5.4,3.1c0.5,1.1,0.7,3.9,0.3,7.4l-72.7,48.9c-1.8-7.5-6.2-14.1-12.3-18.7l42.6-29.4
	c0.4-0.2,0.7-0.5,1-0.8C411.5,276.2,422.6,272.8,430.5,272L430.5,272z M430.5,272"/>
</svg>
