<?xml version="1.0" encoding="utf-8"?>
<!-- Generator: Adobe Illustrator 22.1.0, SVG Export Plug-In . SVG Version: 6.00 Build 0)  -->
<svg version="1.1" id="Layer_1" xmlns="http://www.w3.org/2000/svg" xmlns:xlink="http://www.w3.org/1999/xlink" x="0px" y="0px"
	 viewBox="0 0 509 474" style="enable-background:new 0 0 509 474;" xml:space="preserve">
<style type="text/css">
	.st0{fill:#FFFFFF;}
</style>
<g>
	<path class="st0" d="M64,17c-26.4,0-48,21.6-48,48v256c0,26.4,21.6,48,48,48h176v-32H64c-9,0-16-7-16-16V113h384v64h32V65
		c0-26.4-21.6-48-48-48H64z M64,49h352c9,0,16,7,16,16v16H48V65C48,56,55,49,64,49L64,49z M112,177v32h32v-32H112z M176,177v32h160
		v-32H176z M400,209c-52.9,0-96,43.1-96,96c0,20.6,6.8,39.8,18,55.5l-81.2,81.2l22.5,22.5l81.2-81.3c15.8,11.3,34.9,18,55.5,18
		c52.9,0,96-43.1,96-96S452.9,209,400,209L400,209z M112,241v32h32v-32H112z M176,241v32h96v-32H176z M400,241c35.5,0,64,28.5,64,64
		s-28.5,64-64,64s-64-28.5-64-64S364.5,241,400,241L400,241z M400,241"/>
</g>
</svg>
